<?xml version="1.0" encoding="utf-8"?>
<svg viewBox="136.306 215.237 217.501 124.736" xmlns="http://www.w3.org/2000/svg">
  <rect x="56.796" y="117.806" width="193.172" height="102.171" style="stroke: rgb(0, 0, 0); fill: none; stroke-width: 10px; stroke-linecap: square;" transform="matrix(1, 0.000081, 0.002627, 1, 91.24337, 107.482216)"/>
  <path style="fill: none; stroke: rgb(0, 0, 0); stroke-width: 10px; stroke-linecap: square;" d="M 216.167 256.934 C 200.031 235.727 184.7 241.629 176.096 255.268 C 167.493 268.907 165.616 290.284 176.388 300.024 C 182.022 305.119 192.338 307.108 202.621 305.701 C 212.905 304.295 223.156 299.492 228.659 291.001 C 240.58 272.612 248.385 264.714 255.449 266.018 C 262.513 267.323 268.836 277.831 277.793 296.253 M 271.703 279.177 C 272.835 277.641 275.493 272.217 278.222 266.69 C 280.952 261.163 283.754 255.533 285.176 253.583 C 287.696 250.128 290.497 246.908 293.801 246.637 C 297.106 246.366 300.914 249.044 305.447 257.384 C 308.344 262.714 310.728 267.414 312.531 271.136 C 314.335 274.859 315.559 277.603 316.136 279.022" transform="matrix(1, 0.000081, -0.000081, 1, 0.02224, -0.019646)"/>
  <path style="stroke: rgb(0, 0, 0); stroke-width: 10px; stroke-linecap: square;" d="M 152.529 311.248 C 164.535 317.657 183.639 322.069 205.439 323.09 C 227.24 324.112 251.736 321.744 274.526 314.593 C 286.576 310.811 298.947 303.438 310.505 297.896 C 322.064 292.355 332.809 288.646 341.608 292.194 L 341.582 309.076 L 341.555 325.957 L 246.688 326.366 L 151.82 326.775 C 151.026 323.506 150.974 322.641 151.236 321.085 C 151.497 319.529 152.072 317.281 152.529 311.248 Z" transform="matrix(1, 0.000081, -0.000081, 1, 0.025011, -0.019953)"/>
</svg>